<svg width="1372" height="145" viewBox="0 0 1372 145" fill="none" xmlns="http://www.w3.org/2000/svg">
<g id="header background">
<g clip-path="url(#clip0_1_63)">
<path d="M0 0H1372V135C1372 140.523 1367.52 145 1362 145H10C4.47716 145 0 140.523 0 135V0Z" fill="#0C58E6"/>
<g id="Big Circles">
<g id="Ellipse 5" style="mix-blend-mode:multiply" opacity="0.75" filter="url(#filter0_i_1_63)">
<ellipse cx="852.917" cy="794.358" rx="1019.17" ry="1040.1" transform="rotate(90 852.917 794.358)" fill="white"/>
</g>
<g id="Ellipse 4" style="mix-blend-mode:multiply" opacity="0.75" filter="url(#filter1_i_1_63)">
<ellipse cx="618.619" cy="794.359" rx="788.938" ry="805.798" transform="rotate(90 618.619 794.359)" fill="white"/>
</g>
</g>
<g id="Frame 35288">
<path id="hello, Puneet Dhiman" d="M66.8942 41.3898V75.0858H58.6862V61.2138H45.9182V75.0858H37.7102V41.3898H45.9182V54.5898H58.6862V41.3898H66.8942ZM98.0676 61.2618C98.0676 62.0298 98.0196 62.8298 97.9236 63.6618H79.3476C79.4756 65.3258 80.0036 66.6058 80.9316 67.5018C81.8916 68.3658 83.0596 68.7978 84.4356 68.7978C86.4836 68.7978 87.9076 67.9338 88.7076 66.2058H97.4436C96.9956 67.9658 96.1796 69.5498 94.9956 70.9578C93.8436 72.3658 92.3876 73.4698 90.6276 74.2698C88.8676 75.0698 86.8996 75.4698 84.7236 75.4698C82.0996 75.4698 79.7636 74.9098 77.7156 73.7898C75.6676 72.6698 74.0676 71.0698 72.9156 68.9898C71.7636 66.9098 71.1876 64.4778 71.1876 61.6938C71.1876 58.9098 71.7476 56.4778 72.8676 54.3978C74.0196 52.3178 75.6196 50.7178 77.6676 49.5978C79.7156 48.4778 82.0676 47.9178 84.7236 47.9178C87.3156 47.9178 89.6196 48.4618 91.6356 49.5498C93.6516 50.6378 95.2196 52.1898 96.3396 54.2058C97.4916 56.2218 98.0676 58.5738 98.0676 61.2618ZM89.6676 59.1018C89.6676 57.6938 89.1876 56.5738 88.2276 55.7418C87.2676 54.9098 86.0676 54.4938 84.6276 54.4938C83.2516 54.4938 82.0836 54.8938 81.1236 55.6938C80.1956 56.4938 79.6196 57.6298 79.3956 59.1018H89.6676ZM110.606 39.5658V75.0858H102.398V39.5658H110.606ZM124.762 39.5658V75.0858H116.554V39.5658H124.762ZM142.902 75.4698C140.278 75.4698 137.91 74.9098 135.798 73.7898C133.718 72.6698 132.07 71.0698 130.854 68.9898C129.67 66.9098 129.078 64.4778 129.078 61.6938C129.078 58.9418 129.686 56.5258 130.902 54.4458C132.118 52.3338 133.782 50.7178 135.894 49.5978C138.006 48.4778 140.374 47.9178 142.998 47.9178C145.622 47.9178 147.99 48.4778 150.102 49.5978C152.214 50.7178 153.878 52.3338 155.094 54.4458C156.31 56.5258 156.918 58.9418 156.918 61.6938C156.918 64.4458 156.294 66.8778 155.046 68.9898C153.83 71.0698 152.15 72.6698 150.006 73.7898C147.894 74.9098 145.526 75.4698 142.902 75.4698ZM142.902 68.3658C144.47 68.3658 145.798 67.7898 146.886 66.6378C148.006 65.4858 148.566 63.8378 148.566 61.6938C148.566 59.5498 148.022 57.9018 146.934 56.7498C145.878 55.5978 144.566 55.0218 142.998 55.0218C141.398 55.0218 140.07 55.5978 139.014 56.7498C137.958 57.8698 137.43 59.5178 137.43 61.6938C137.43 63.8378 137.942 65.4858 138.966 66.6378C140.022 67.7898 141.334 68.3658 142.902 68.3658ZM170.105 67.5018L164.777 81.2778H159.545L162.329 67.5018H170.105ZM210.906 52.2378C210.906 54.1898 210.458 55.9818 209.562 57.6138C208.666 59.2138 207.29 60.5098 205.434 61.5018C203.578 62.4938 201.274 62.9898 198.522 62.9898H193.434V75.0858H185.226V41.3898H198.522C201.21 41.3898 203.482 41.8538 205.338 42.7818C207.194 43.7098 208.586 44.9898 209.514 46.6218C210.442 48.2538 210.906 50.1258 210.906 52.2378ZM197.898 56.4618C199.466 56.4618 200.634 56.0938 201.402 55.3578C202.17 54.6218 202.554 53.5818 202.554 52.2378C202.554 50.8938 202.17 49.8538 201.402 49.1178C200.634 48.3818 199.466 48.0138 197.898 48.0138H193.434V56.4618H197.898ZM241.627 48.3018V75.0858H233.419V71.4378C232.587 72.6218 231.451 73.5818 230.011 74.3178C228.603 75.0218 227.035 75.3738 225.307 75.3738C223.259 75.3738 221.451 74.9258 219.883 74.0298C218.315 73.1018 217.099 71.7738 216.235 70.0458C215.371 68.3178 214.939 66.2858 214.939 63.9498V48.3018H223.099V62.8458C223.099 64.6378 223.563 66.0298 224.491 67.0218C225.419 68.0138 226.667 68.5098 228.235 68.5098C229.835 68.5098 231.099 68.0138 232.027 67.0218C232.955 66.0298 233.419 64.6378 233.419 62.8458V48.3018H241.627ZM263.843 48.0138C266.979 48.0138 269.475 49.0378 271.331 51.0858C273.219 53.1018 274.163 55.8858 274.163 59.4378V75.0858H266.003V60.5418C266.003 58.7498 265.539 57.3578 264.611 56.3658C263.683 55.3738 262.435 54.8778 260.867 54.8778C259.299 54.8778 258.051 55.3738 257.123 56.3658C256.195 57.3578 255.731 58.7498 255.731 60.5418V75.0858H247.523V48.3018H255.731V51.8538C256.563 50.6698 257.683 49.7418 259.091 49.0698C260.499 48.3658 262.083 48.0138 263.843 48.0138ZM305.114 61.2618C305.114 62.0298 305.066 62.8298 304.97 63.6618H286.394C286.522 65.3258 287.05 66.6058 287.978 67.5018C288.938 68.3658 290.106 68.7978 291.482 68.7978C293.53 68.7978 294.954 67.9338 295.754 66.2058H304.49C304.042 67.9658 303.226 69.5498 302.042 70.9578C300.89 72.3658 299.434 73.4698 297.674 74.2698C295.914 75.0698 293.946 75.4698 291.77 75.4698C289.146 75.4698 286.81 74.9098 284.762 73.7898C282.714 72.6698 281.114 71.0698 279.962 68.9898C278.81 66.9098 278.234 64.4778 278.234 61.6938C278.234 58.9098 278.794 56.4778 279.914 54.3978C281.066 52.3178 282.666 50.7178 284.714 49.5978C286.762 48.4778 289.114 47.9178 291.77 47.9178C294.362 47.9178 296.666 48.4618 298.682 49.5498C300.698 50.6378 302.266 52.1898 303.386 54.2058C304.538 56.2218 305.114 58.5738 305.114 61.2618ZM296.714 59.1018C296.714 57.6938 296.234 56.5738 295.274 55.7418C294.314 54.9098 293.114 54.4938 291.674 54.4938C290.298 54.4938 289.13 54.8938 288.17 55.6938C287.242 56.4938 286.666 57.6298 286.442 59.1018H296.714ZM334.693 61.2618C334.693 62.0298 334.645 62.8298 334.549 63.6618H315.973C316.101 65.3258 316.629 66.6058 317.557 67.5018C318.517 68.3658 319.685 68.7978 321.061 68.7978C323.109 68.7978 324.533 67.9338 325.333 66.2058H334.069C333.621 67.9658 332.805 69.5498 331.621 70.9578C330.469 72.3658 329.013 73.4698 327.253 74.2698C325.493 75.0698 323.525 75.4698 321.349 75.4698C318.725 75.4698 316.389 74.9098 314.341 73.7898C312.293 72.6698 310.693 71.0698 309.541 68.9898C308.389 66.9098 307.813 64.4778 307.813 61.6938C307.813 58.9098 308.373 56.4778 309.493 54.3978C310.645 52.3178 312.245 50.7178 314.293 49.5978C316.341 48.4778 318.693 47.9178 321.349 47.9178C323.941 47.9178 326.245 48.4618 328.261 49.5498C330.277 50.6378 331.845 52.1898 332.965 54.2058C334.117 56.2218 334.693 58.5738 334.693 61.2618ZM326.293 59.1018C326.293 57.6938 325.813 56.5738 324.853 55.7418C323.893 54.9098 322.693 54.4938 321.253 54.4938C319.877 54.4938 318.709 54.8938 317.749 55.6938C316.821 56.4938 316.245 57.6298 316.021 59.1018H326.293ZM353.951 68.1258V75.0858H349.775C346.799 75.0858 344.479 74.3658 342.815 72.9258C341.151 71.4538 340.319 69.0698 340.319 65.7738V55.1178H337.055V48.3018H340.319V41.7738H348.527V48.3018H353.903V55.1178H348.527V65.8698C348.527 66.6698 348.719 67.2458 349.103 67.5978C349.487 67.9498 350.127 68.1258 351.023 68.1258H353.951ZM381.319 41.3898C384.871 41.3898 387.975 42.0938 390.631 43.5018C393.287 44.9098 395.335 46.8938 396.775 49.4538C398.247 51.9818 398.983 54.9098 398.983 58.2378C398.983 61.5338 398.247 64.4618 396.775 67.0218C395.335 69.5818 393.271 71.5658 390.583 72.9738C387.927 74.3818 384.839 75.0858 381.319 75.0858H368.695V41.3898H381.319ZM380.791 67.9818C383.895 67.9818 386.311 67.1338 388.039 65.4378C389.767 63.7418 390.631 61.3418 390.631 58.2378C390.631 55.1338 389.767 52.7178 388.039 50.9898C386.311 49.2618 383.895 48.3978 380.791 48.3978H376.903V67.9818H380.791ZM420.034 48.0138C423.106 48.0138 425.57 49.0378 427.426 51.0858C429.282 53.1018 430.21 55.8858 430.21 59.4378V75.0858H422.05V60.5418C422.05 58.7498 421.586 57.3578 420.658 56.3658C419.73 55.3738 418.482 54.8778 416.914 54.8778C415.346 54.8778 414.098 55.3738 413.17 56.3658C412.242 57.3578 411.778 58.7498 411.778 60.5418V75.0858H403.57V39.5658H411.778V51.9018C412.61 50.7178 413.746 49.7738 415.186 49.0698C416.626 48.3658 418.242 48.0138 420.034 48.0138ZM440.041 45.5178C438.601 45.5178 437.417 45.1018 436.489 44.2698C435.593 43.4058 435.145 42.3498 435.145 41.1018C435.145 39.8218 435.593 38.7658 436.489 37.9338C437.417 37.0698 438.601 36.6378 440.041 36.6378C441.449 36.6378 442.601 37.0698 443.497 37.9338C444.425 38.7658 444.889 39.8218 444.889 41.1018C444.889 42.3498 444.425 43.4058 443.497 44.2698C442.601 45.1018 441.449 45.5178 440.041 45.5178ZM444.121 48.3018V75.0858H435.913V48.3018H444.121ZM484.246 48.0138C487.574 48.0138 490.214 49.0218 492.166 51.0378C494.15 53.0538 495.142 55.8538 495.142 59.4378V75.0858H486.982V60.5418C486.982 58.8138 486.518 57.4858 485.59 56.5578C484.694 55.5978 483.446 55.1178 481.846 55.1178C480.246 55.1178 478.982 55.5978 478.054 56.5578C477.158 57.4858 476.71 58.8138 476.71 60.5418V75.0858H468.55V60.5418C468.55 58.8138 468.086 57.4858 467.158 56.5578C466.262 55.5978 465.014 55.1178 463.414 55.1178C461.814 55.1178 460.55 55.5978 459.622 56.5578C458.726 57.4858 458.278 58.8138 458.278 60.5418V75.0858H450.07V48.3018H458.278V51.6618C459.11 50.5418 460.198 49.6618 461.542 49.0218C462.886 48.3498 464.406 48.0138 466.102 48.0138C468.118 48.0138 469.91 48.4458 471.478 49.3098C473.078 50.1738 474.326 51.4058 475.222 53.0058C476.15 51.5338 477.414 50.3338 479.014 49.4058C480.614 48.4778 482.358 48.0138 484.246 48.0138ZM499.25 61.6458C499.25 58.8938 499.762 56.4778 500.786 54.3978C501.842 52.3178 503.266 50.7178 505.058 49.5978C506.85 48.4778 508.85 47.9178 511.058 47.9178C512.946 47.9178 514.594 48.3018 516.002 49.0698C517.442 49.8378 518.546 50.8458 519.314 52.0938V48.3018H527.522V75.0858H519.314V71.2938C518.514 72.5418 517.394 73.5498 515.954 74.3178C514.546 75.0858 512.898 75.4698 511.01 75.4698C508.834 75.4698 506.85 74.9098 505.058 73.7898C503.266 72.6378 501.842 71.0218 500.786 68.9418C499.762 66.8298 499.25 64.3978 499.25 61.6458ZM519.314 61.6938C519.314 59.6458 518.738 58.0298 517.586 56.8458C516.466 55.6618 515.09 55.0698 513.458 55.0698C511.826 55.0698 510.434 55.6618 509.282 56.8458C508.162 57.9978 507.602 59.5978 507.602 61.6458C507.602 63.6938 508.162 65.3258 509.282 66.5418C510.434 67.7258 511.826 68.3178 513.458 68.3178C515.09 68.3178 516.466 67.7258 517.586 66.5418C518.738 65.3578 519.314 63.7418 519.314 61.6938ZM549.78 48.0138C552.916 48.0138 555.412 49.0378 557.268 51.0858C559.156 53.1018 560.1 55.8858 560.1 59.4378V75.0858H551.94V60.5418C551.94 58.7498 551.476 57.3578 550.548 56.3658C549.62 55.3738 548.372 54.8778 546.804 54.8778C545.236 54.8778 543.988 55.3738 543.06 56.3658C542.132 57.3578 541.668 58.7498 541.668 60.5418V75.0858H533.46V48.3018H541.668V51.8538C542.5 50.6698 543.62 49.7418 545.028 49.0698C546.436 48.3658 548.02 48.0138 549.78 48.0138Z" fill="white"/>
<path id="following is your organization&#226;&#128;&#153;s performance summary" d="M43.6832 106.562V107.968H37.9262V112.433H42.6002V113.839H37.9262V119.805H36.1972V106.562H43.6832ZM50.3124 119.976C49.3371 119.976 48.4504 119.754 47.6524 119.311C46.8671 118.867 46.2464 118.24 45.7904 117.43C45.3471 116.606 45.1254 115.656 45.1254 114.58C45.1254 113.516 45.3534 112.578 45.8094 111.768C46.2781 110.944 46.9114 110.317 47.7094 109.887C48.5074 109.443 49.4004 109.222 50.3884 109.222C51.3764 109.222 52.2694 109.443 53.0674 109.887C53.8654 110.317 54.4924 110.938 54.9484 111.749C55.4171 112.559 55.6514 113.503 55.6514 114.58C55.6514 115.656 55.4107 116.606 54.9294 117.43C54.4607 118.24 53.8211 118.867 53.0104 119.311C52.1997 119.754 51.3004 119.976 50.3124 119.976ZM50.3124 118.456C50.9331 118.456 51.5157 118.31 52.0604 118.019C52.6051 117.727 53.0421 117.29 53.3714 116.708C53.7134 116.125 53.8844 115.416 53.8844 114.58C53.8844 113.744 53.7197 113.034 53.3904 112.452C53.0611 111.869 52.6304 111.438 52.0984 111.16C51.5664 110.868 50.9901 110.723 50.3694 110.723C49.7361 110.723 49.1534 110.868 48.6214 111.16C48.1021 111.438 47.6841 111.869 47.3674 112.452C47.0507 113.034 46.8924 113.744 46.8924 114.58C46.8924 115.428 47.0444 116.144 47.3484 116.727C47.6651 117.309 48.0831 117.746 48.6024 118.038C49.1217 118.316 49.6917 118.456 50.3124 118.456ZM59.6537 105.745V119.805H57.9247V105.745H59.6537ZM64.3295 105.745V119.805H62.6005V105.745H64.3295ZM71.8173 119.976C70.842 119.976 69.9553 119.754 69.1573 119.311C68.372 118.867 67.7513 118.24 67.2953 117.43C66.852 116.606 66.6303 115.656 66.6303 114.58C66.6303 113.516 66.8583 112.578 67.3143 111.768C67.783 110.944 68.4163 110.317 69.2143 109.887C70.0123 109.443 70.9053 109.222 71.8933 109.222C72.8813 109.222 73.7743 109.443 74.5723 109.887C75.3703 110.317 75.9973 110.938 76.4533 111.749C76.922 112.559 77.1563 113.503 77.1563 114.58C77.1563 115.656 76.9156 116.606 76.4343 117.43C75.9656 118.24 75.326 118.867 74.5153 119.311C73.7046 119.754 72.8053 119.976 71.8173 119.976ZM71.8173 118.456C72.438 118.456 73.0206 118.31 73.5653 118.019C74.11 117.727 74.547 117.29 74.8763 116.708C75.2183 116.125 75.3893 115.416 75.3893 114.58C75.3893 113.744 75.2246 113.034 74.8953 112.452C74.566 111.869 74.1353 111.438 73.6033 111.16C73.0713 110.868 72.495 110.723 71.8743 110.723C71.241 110.723 70.6583 110.868 70.1263 111.16C69.607 111.438 69.189 111.869 68.8723 112.452C68.5556 113.034 68.3973 113.744 68.3973 114.58C68.3973 115.428 68.5493 116.144 68.8533 116.727C69.17 117.309 69.588 117.746 70.1073 118.038C70.6266 118.316 71.1966 118.456 71.8173 118.456ZM93.2996 109.393L90.0506 119.805H88.2646L85.7566 111.54L83.2486 119.805H81.4626L78.1946 109.393H79.9616L82.3556 118.133L84.9396 109.393H86.7066L89.2336 118.152L91.5896 109.393H93.2996ZM95.9086 107.702C95.5792 107.702 95.3006 107.588 95.0726 107.36C94.8446 107.132 94.7306 106.853 94.7306 106.524C94.7306 106.194 94.8446 105.916 95.0726 105.688C95.3006 105.46 95.5792 105.346 95.9086 105.346C96.2252 105.346 96.4912 105.46 96.7066 105.688C96.9346 105.916 97.0486 106.194 97.0486 106.524C97.0486 106.853 96.9346 107.132 96.7066 107.36C96.4912 107.588 96.2252 107.702 95.9086 107.702ZM96.7446 109.393V119.805H95.0156V109.393H96.7446ZM104.764 109.203C106.031 109.203 107.057 109.589 107.842 110.362C108.628 111.122 109.02 112.224 109.02 113.668V119.805H107.31V113.915C107.31 112.876 107.051 112.084 106.531 111.54C106.012 110.982 105.303 110.704 104.403 110.704C103.491 110.704 102.763 110.989 102.218 111.559C101.686 112.129 101.42 112.958 101.42 114.048V119.805H99.6913V109.393H101.42V110.875C101.762 110.343 102.225 109.931 102.807 109.64C103.403 109.348 104.055 109.203 104.764 109.203ZM116.139 109.222C117.038 109.222 117.823 109.418 118.495 109.811C119.179 110.203 119.685 110.697 120.015 111.293V109.393H121.763V120.033C121.763 120.983 121.56 121.825 121.155 122.56C120.749 123.307 120.167 123.89 119.407 124.308C118.659 124.726 117.785 124.935 116.785 124.935C115.417 124.935 114.277 124.612 113.365 123.966C112.453 123.32 111.914 122.439 111.75 121.325H113.46C113.65 121.958 114.042 122.465 114.638 122.845C115.233 123.237 115.949 123.434 116.785 123.434C117.735 123.434 118.507 123.136 119.103 122.541C119.711 121.945 120.015 121.109 120.015 120.033V117.848C119.673 118.456 119.166 118.962 118.495 119.368C117.823 119.773 117.038 119.976 116.139 119.976C115.214 119.976 114.372 119.748 113.612 119.292C112.864 118.836 112.275 118.196 111.845 117.373C111.414 116.549 111.199 115.612 111.199 114.561C111.199 113.497 111.414 112.566 111.845 111.768C112.275 110.957 112.864 110.33 113.612 109.887C114.372 109.443 115.214 109.222 116.139 109.222ZM120.015 114.58C120.015 113.794 119.856 113.11 119.54 112.528C119.223 111.945 118.792 111.502 118.248 111.198C117.716 110.881 117.127 110.723 116.481 110.723C115.835 110.723 115.246 110.875 114.714 111.179C114.182 111.483 113.757 111.926 113.441 112.509C113.124 113.091 112.966 113.775 112.966 114.561C112.966 115.359 113.124 116.055 113.441 116.651C113.757 117.233 114.182 117.683 114.714 118C115.246 118.304 115.835 118.456 116.481 118.456C117.127 118.456 117.716 118.304 118.248 118C118.792 117.683 119.223 117.233 119.54 116.651C119.856 116.055 120.015 115.365 120.015 114.58ZM131.479 106.562V119.805H129.75V106.562H131.479ZM138.112 119.976C137.314 119.976 136.598 119.843 135.965 119.577C135.331 119.298 134.831 118.918 134.464 118.437C134.096 117.943 133.894 117.379 133.856 116.746H135.642C135.692 117.265 135.933 117.689 136.364 118.019C136.807 118.348 137.383 118.513 138.093 118.513C138.751 118.513 139.271 118.367 139.651 118.076C140.031 117.784 140.221 117.417 140.221 116.974C140.221 116.518 140.018 116.182 139.613 115.967C139.207 115.739 138.58 115.517 137.732 115.302C136.959 115.099 136.326 114.896 135.832 114.694C135.35 114.478 134.932 114.168 134.578 113.763C134.236 113.345 134.065 112.8 134.065 112.129C134.065 111.597 134.223 111.109 134.54 110.666C134.856 110.222 135.306 109.874 135.889 109.621C136.471 109.355 137.136 109.222 137.884 109.222C139.036 109.222 139.967 109.513 140.677 110.096C141.386 110.678 141.766 111.476 141.817 112.49H140.088C140.05 111.945 139.828 111.508 139.423 111.179C139.03 110.849 138.498 110.685 137.827 110.685C137.206 110.685 136.712 110.818 136.345 111.084C135.977 111.35 135.794 111.698 135.794 112.129C135.794 112.471 135.901 112.756 136.117 112.984C136.345 113.199 136.623 113.376 136.953 113.516C137.295 113.642 137.763 113.788 138.359 113.953C139.106 114.155 139.714 114.358 140.183 114.561C140.651 114.751 141.05 115.042 141.38 115.435C141.722 115.827 141.899 116.34 141.912 116.974C141.912 117.544 141.753 118.057 141.437 118.513C141.12 118.969 140.67 119.33 140.088 119.596C139.518 119.849 138.859 119.976 138.112 119.976ZM158.69 106.562L154.377 114.808V119.805H152.648V114.808L148.316 106.562H150.235L153.503 113.269L156.771 106.562H158.69ZM165.055 119.976C164.079 119.976 163.193 119.754 162.395 119.311C161.609 118.867 160.989 118.24 160.533 117.43C160.089 116.606 159.868 115.656 159.868 114.58C159.868 113.516 160.096 112.578 160.552 111.768C161.02 110.944 161.654 110.317 162.452 109.887C163.25 109.443 164.143 109.222 165.131 109.222C166.119 109.222 167.012 109.443 167.81 109.887C168.608 110.317 169.235 110.938 169.691 111.749C170.159 112.559 170.394 113.503 170.394 114.58C170.394 115.656 170.153 116.606 169.672 117.43C169.203 118.24 168.563 118.867 167.753 119.311C166.942 119.754 166.043 119.976 165.055 119.976ZM165.055 118.456C165.675 118.456 166.258 118.31 166.803 118.019C167.347 117.727 167.784 117.29 168.114 116.708C168.456 116.125 168.627 115.416 168.627 114.58C168.627 113.744 168.462 113.034 168.133 112.452C167.803 111.869 167.373 111.438 166.841 111.16C166.309 110.868 165.732 110.723 165.112 110.723C164.478 110.723 163.896 110.868 163.364 111.16C162.844 111.438 162.426 111.869 162.11 112.452C161.793 113.034 161.635 113.744 161.635 114.58C161.635 115.428 161.787 116.144 162.091 116.727C162.407 117.309 162.825 117.746 163.345 118.038C163.864 118.316 164.434 118.456 165.055 118.456ZM181.901 109.393V119.805H180.172V118.266C179.843 118.798 179.38 119.216 178.785 119.52C178.202 119.811 177.556 119.957 176.847 119.957C176.036 119.957 175.308 119.792 174.662 119.463C174.016 119.121 173.503 118.614 173.123 117.943C172.756 117.271 172.572 116.454 172.572 115.492V109.393H174.282V115.264C174.282 116.29 174.542 117.081 175.061 117.639C175.58 118.183 176.29 118.456 177.189 118.456C178.114 118.456 178.842 118.171 179.374 117.601C179.906 117.031 180.172 116.201 180.172 115.112V109.393H181.901ZM186.549 111.084C186.853 110.488 187.284 110.026 187.841 109.697C188.411 109.367 189.102 109.203 189.912 109.203V110.989H189.456C187.518 110.989 186.549 112.04 186.549 114.143V119.805H184.82V109.393H186.549V111.084ZM202.978 119.938C201.749 119.938 200.628 119.653 199.615 119.083C198.601 118.5 197.797 117.696 197.202 116.67C196.619 115.631 196.328 114.466 196.328 113.174C196.328 111.882 196.619 110.723 197.202 109.697C197.797 108.658 198.601 107.854 199.615 107.284C200.628 106.701 201.749 106.41 202.978 106.41C204.219 106.41 205.346 106.701 206.36 107.284C207.373 107.854 208.171 108.652 208.754 109.678C209.336 110.704 209.628 111.869 209.628 113.174C209.628 114.478 209.336 115.644 208.754 116.67C208.171 117.696 207.373 118.5 206.36 119.083C205.346 119.653 204.219 119.938 202.978 119.938ZM202.978 118.437C203.902 118.437 204.732 118.221 205.467 117.791C206.214 117.36 206.797 116.746 207.215 115.948C207.645 115.15 207.861 114.225 207.861 113.174C207.861 112.11 207.645 111.185 207.215 110.4C206.797 109.602 206.22 108.987 205.486 108.557C204.751 108.126 203.915 107.911 202.978 107.911C202.04 107.911 201.204 108.126 200.47 108.557C199.735 108.987 199.152 109.602 198.722 110.4C198.304 111.185 198.095 112.11 198.095 113.174C198.095 114.225 198.304 115.15 198.722 115.948C199.152 116.746 199.735 117.36 200.47 117.791C201.217 118.221 202.053 118.437 202.978 118.437ZM213.639 111.084C213.943 110.488 214.374 110.026 214.931 109.697C215.501 109.367 216.191 109.203 217.002 109.203V110.989H216.546C214.608 110.989 213.639 112.04 213.639 114.143V119.805H211.91V109.393H213.639V111.084ZM223.292 109.222C224.191 109.222 224.977 109.418 225.648 109.811C226.332 110.203 226.839 110.697 227.168 111.293V109.393H228.916V120.033C228.916 120.983 228.713 121.825 228.308 122.56C227.903 123.307 227.32 123.89 226.56 124.308C225.813 124.726 224.939 124.935 223.938 124.935C222.57 124.935 221.43 124.612 220.518 123.966C219.606 123.32 219.068 122.439 218.903 121.325H220.613C220.803 121.958 221.196 122.465 221.791 122.845C222.386 123.237 223.102 123.434 223.938 123.434C224.888 123.434 225.661 123.136 226.256 122.541C226.864 121.945 227.168 121.109 227.168 120.033V117.848C226.826 118.456 226.319 118.962 225.648 119.368C224.977 119.773 224.191 119.976 223.292 119.976C222.367 119.976 221.525 119.748 220.765 119.292C220.018 118.836 219.429 118.196 218.998 117.373C218.567 116.549 218.352 115.612 218.352 114.561C218.352 113.497 218.567 112.566 218.998 111.768C219.429 110.957 220.018 110.33 220.765 109.887C221.525 109.443 222.367 109.222 223.292 109.222ZM227.168 114.58C227.168 113.794 227.01 113.11 226.693 112.528C226.376 111.945 225.946 111.502 225.401 111.198C224.869 110.881 224.28 110.723 223.634 110.723C222.988 110.723 222.399 110.875 221.867 111.179C221.335 111.483 220.911 111.926 220.594 112.509C220.277 113.091 220.119 113.775 220.119 114.561C220.119 115.359 220.277 116.055 220.594 116.651C220.911 117.233 221.335 117.683 221.867 118C222.399 118.304 222.988 118.456 223.634 118.456C224.28 118.456 224.869 118.304 225.401 118C225.946 117.683 226.376 117.233 226.693 116.651C227.01 116.055 227.168 115.365 227.168 114.58ZM231.192 114.561C231.192 113.497 231.407 112.566 231.838 111.768C232.268 110.957 232.857 110.33 233.605 109.887C234.365 109.443 235.207 109.222 236.132 109.222C237.044 109.222 237.835 109.418 238.507 109.811C239.178 110.203 239.678 110.697 240.008 111.293V109.393H241.756V119.805H240.008V117.867C239.666 118.475 239.153 118.981 238.469 119.387C237.797 119.779 237.012 119.976 236.113 119.976C235.188 119.976 234.352 119.748 233.605 119.292C232.857 118.836 232.268 118.196 231.838 117.373C231.407 116.549 231.192 115.612 231.192 114.561ZM240.008 114.58C240.008 113.794 239.849 113.11 239.533 112.528C239.216 111.945 238.785 111.502 238.241 111.198C237.709 110.881 237.12 110.723 236.474 110.723C235.828 110.723 235.239 110.875 234.707 111.179C234.175 111.483 233.75 111.926 233.434 112.509C233.117 113.091 232.959 113.775 232.959 114.561C232.959 115.359 233.117 116.055 233.434 116.651C233.75 117.233 234.175 117.683 234.707 118C235.239 118.304 235.828 118.456 236.474 118.456C237.12 118.456 237.709 118.304 238.241 118C238.785 117.683 239.216 117.233 239.533 116.651C239.849 116.055 240.008 115.365 240.008 114.58ZM249.751 109.203C251.017 109.203 252.043 109.589 252.829 110.362C253.614 111.122 254.007 112.224 254.007 113.668V119.805H252.297V113.915C252.297 112.876 252.037 112.084 251.518 111.54C250.998 110.982 250.289 110.704 249.39 110.704C248.478 110.704 247.749 110.989 247.205 111.559C246.673 112.129 246.407 112.958 246.407 114.048V119.805H244.678V109.393H246.407V110.875C246.749 110.343 247.211 109.931 247.794 109.64C248.389 109.348 249.041 109.203 249.751 109.203ZM257.724 107.702C257.395 107.702 257.116 107.588 256.888 107.36C256.66 107.132 256.546 106.853 256.546 106.524C256.546 106.194 256.66 105.916 256.888 105.688C257.116 105.46 257.395 105.346 257.724 105.346C258.041 105.346 258.307 105.46 258.522 105.688C258.75 105.916 258.864 106.194 258.864 106.524C258.864 106.853 258.75 107.132 258.522 107.36C258.307 107.588 258.041 107.702 257.724 107.702ZM258.56 109.393V119.805H256.831V109.393H258.56ZM262.799 118.38H267.91V119.805H260.823V118.38L265.877 110.799H260.861V109.393H267.872V110.799L262.799 118.38ZM269.507 114.561C269.507 113.497 269.723 112.566 270.153 111.768C270.584 110.957 271.173 110.33 271.92 109.887C272.68 109.443 273.523 109.222 274.447 109.222C275.359 109.222 276.151 109.418 276.822 109.811C277.494 110.203 277.994 110.697 278.323 111.293V109.393H280.071V119.805H278.323V117.867C277.981 118.475 277.468 118.981 276.784 119.387C276.113 119.779 275.328 119.976 274.428 119.976C273.504 119.976 272.668 119.748 271.92 119.292C271.173 118.836 270.584 118.196 270.153 117.373C269.723 116.549 269.507 115.612 269.507 114.561ZM278.323 114.58C278.323 113.794 278.165 113.11 277.848 112.528C277.532 111.945 277.101 111.502 276.556 111.198C276.024 110.881 275.435 110.723 274.789 110.723C274.143 110.723 273.554 110.875 273.022 111.179C272.49 111.483 272.066 111.926 271.749 112.509C271.433 113.091 271.274 113.775 271.274 114.561C271.274 115.359 271.433 116.055 271.749 116.651C272.066 117.233 272.49 117.683 273.022 118C273.554 118.304 274.143 118.456 274.789 118.456C275.435 118.456 276.024 118.304 276.556 118C277.101 117.683 277.532 117.233 277.848 116.651C278.165 116.055 278.323 115.365 278.323 114.58ZM285.102 110.818V116.955C285.102 117.461 285.21 117.822 285.425 118.038C285.64 118.24 286.014 118.342 286.546 118.342H287.819V119.805H286.261C285.298 119.805 284.576 119.583 284.095 119.14C283.614 118.696 283.373 117.968 283.373 116.955V110.818H282.024V109.393H283.373V106.771H285.102V109.393H287.819V110.818H285.102ZM290.807 107.702C290.478 107.702 290.199 107.588 289.971 107.36C289.743 107.132 289.629 106.853 289.629 106.524C289.629 106.194 289.743 105.916 289.971 105.688C290.199 105.46 290.478 105.346 290.807 105.346C291.124 105.346 291.39 105.46 291.605 105.688C291.833 105.916 291.947 106.194 291.947 106.524C291.947 106.853 291.833 107.132 291.605 107.36C291.39 107.588 291.124 107.702 290.807 107.702ZM291.643 109.393V119.805H289.914V109.393H291.643ZM299.131 119.976C298.155 119.976 297.269 119.754 296.471 119.311C295.685 118.867 295.065 118.24 294.609 117.43C294.165 116.606 293.944 115.656 293.944 114.58C293.944 113.516 294.172 112.578 294.628 111.768C295.096 110.944 295.73 110.317 296.528 109.887C297.326 109.443 298.219 109.222 299.207 109.222C300.195 109.222 301.088 109.443 301.886 109.887C302.684 110.317 303.311 110.938 303.767 111.749C304.235 112.559 304.47 113.503 304.47 114.58C304.47 115.656 304.229 116.606 303.748 117.43C303.279 118.24 302.639 118.867 301.829 119.311C301.018 119.754 300.119 119.976 299.131 119.976ZM299.131 118.456C299.751 118.456 300.334 118.31 300.879 118.019C301.423 117.727 301.86 117.29 302.19 116.708C302.532 116.125 302.703 115.416 302.703 114.58C302.703 113.744 302.538 113.034 302.209 112.452C301.879 111.869 301.449 111.438 300.917 111.16C300.385 110.868 299.808 110.723 299.188 110.723C298.554 110.723 297.972 110.868 297.44 111.16C296.92 111.438 296.502 111.869 296.186 112.452C295.869 113.034 295.711 113.744 295.711 114.58C295.711 115.428 295.863 116.144 296.167 116.727C296.483 117.309 296.901 117.746 297.421 118.038C297.94 118.316 298.51 118.456 299.131 118.456ZM311.816 109.203C313.083 109.203 314.109 109.589 314.894 110.362C315.679 111.122 316.072 112.224 316.072 113.668V119.805H314.362V113.915C314.362 112.876 314.102 112.084 313.583 111.54C313.064 110.982 312.354 110.704 311.455 110.704C310.543 110.704 309.815 110.989 309.27 111.559C308.738 112.129 308.472 112.958 308.472 114.048V119.805H306.743V109.393H308.472V110.875C308.814 110.343 309.276 109.931 309.859 109.64C310.454 109.348 311.107 109.203 311.816 109.203ZM319.162 106.562H321.081L319.257 110.875H318.041L319.162 106.562ZM326.739 119.976C325.941 119.976 325.225 119.843 324.592 119.577C323.958 119.298 323.458 118.918 323.091 118.437C322.723 117.943 322.521 117.379 322.483 116.746H324.269C324.319 117.265 324.56 117.689 324.991 118.019C325.434 118.348 326.01 118.513 326.72 118.513C327.378 118.513 327.898 118.367 328.278 118.076C328.658 117.784 328.848 117.417 328.848 116.974C328.848 116.518 328.645 116.182 328.24 115.967C327.834 115.739 327.207 115.517 326.359 115.302C325.586 115.099 324.953 114.896 324.459 114.694C323.977 114.478 323.559 114.168 323.205 113.763C322.863 113.345 322.692 112.8 322.692 112.129C322.692 111.597 322.85 111.109 323.167 110.666C323.483 110.222 323.933 109.874 324.516 109.621C325.098 109.355 325.763 109.222 326.511 109.222C327.663 109.222 328.594 109.513 329.304 110.096C330.013 110.678 330.393 111.476 330.444 112.49H328.715C328.677 111.945 328.455 111.508 328.05 111.179C327.657 110.849 327.125 110.685 326.454 110.685C325.833 110.685 325.339 110.818 324.972 111.084C324.604 111.35 324.421 111.698 324.421 112.129C324.421 112.471 324.528 112.756 324.744 112.984C324.972 113.199 325.25 113.376 325.58 113.516C325.922 113.642 326.39 113.788 326.986 113.953C327.733 114.155 328.341 114.358 328.81 114.561C329.278 114.751 329.677 115.042 330.007 115.435C330.349 115.827 330.526 116.34 330.539 116.974C330.539 117.544 330.38 118.057 330.064 118.513C329.747 118.969 329.297 119.33 328.715 119.596C328.145 119.849 327.486 119.976 326.739 119.976ZM346.899 110.438C346.899 111.54 346.519 112.458 345.759 113.193C345.012 113.915 343.865 114.276 342.32 114.276H339.774V119.805H338.045V106.562H342.32C343.815 106.562 344.948 106.923 345.721 107.645C346.506 108.367 346.899 109.298 346.899 110.438ZM342.32 112.851C343.283 112.851 343.992 112.642 344.448 112.224C344.904 111.806 345.132 111.21 345.132 110.438C345.132 108.804 344.195 107.987 342.32 107.987H339.774V112.851H342.32ZM358.548 114.2C358.548 114.529 358.529 114.877 358.491 115.245H350.169C350.232 116.271 350.58 117.075 351.214 117.658C351.86 118.228 352.639 118.513 353.551 118.513C354.298 118.513 354.919 118.342 355.413 118C355.919 117.645 356.274 117.176 356.477 116.594H358.339C358.06 117.594 357.503 118.411 356.667 119.045C355.831 119.665 354.792 119.976 353.551 119.976C352.563 119.976 351.676 119.754 350.891 119.311C350.118 118.867 349.51 118.24 349.067 117.43C348.623 116.606 348.402 115.656 348.402 114.58C348.402 113.503 348.617 112.559 349.048 111.749C349.478 110.938 350.08 110.317 350.853 109.887C351.638 109.443 352.537 109.222 353.551 109.222C354.539 109.222 355.413 109.437 356.173 109.868C356.933 110.298 357.515 110.894 357.921 111.654C358.339 112.401 358.548 113.25 358.548 114.2ZM356.762 113.839C356.762 113.18 356.616 112.616 356.325 112.148C356.033 111.666 355.634 111.305 355.128 111.065C354.634 110.811 354.083 110.685 353.475 110.685C352.601 110.685 351.853 110.963 351.233 111.521C350.625 112.078 350.276 112.851 350.188 113.839H356.762ZM362.559 111.084C362.863 110.488 363.294 110.026 363.851 109.697C364.421 109.367 365.111 109.203 365.922 109.203V110.989H365.466C363.528 110.989 362.559 112.04 362.559 114.143V119.805H360.83V109.393H362.559V111.084ZM372.155 110.818H369.97V119.805H368.241V110.818H366.892V109.393H368.241V108.652C368.241 107.486 368.539 106.638 369.134 106.106C369.742 105.561 370.711 105.289 372.041 105.289V106.733C371.281 106.733 370.743 106.885 370.426 107.189C370.122 107.48 369.97 107.968 369.97 108.652V109.393H372.155V110.818ZM378.712 119.976C377.736 119.976 376.85 119.754 376.052 119.311C375.266 118.867 374.646 118.24 374.19 117.43C373.746 116.606 373.525 115.656 373.525 114.58C373.525 113.516 373.753 112.578 374.209 111.768C374.677 110.944 375.311 110.317 376.109 109.887C376.907 109.443 377.8 109.222 378.788 109.222C379.776 109.222 380.669 109.443 381.467 109.887C382.265 110.317 382.892 110.938 383.348 111.749C383.816 112.559 384.051 113.503 384.051 114.58C384.051 115.656 383.81 116.606 383.329 117.43C382.86 118.24 382.22 118.867 381.41 119.311C380.599 119.754 379.7 119.976 378.712 119.976ZM378.712 118.456C379.332 118.456 379.915 118.31 380.46 118.019C381.004 117.727 381.441 117.29 381.771 116.708C382.113 116.125 382.284 115.416 382.284 114.58C382.284 113.744 382.119 113.034 381.79 112.452C381.46 111.869 381.03 111.438 380.498 111.16C379.966 110.868 379.389 110.723 378.769 110.723C378.135 110.723 377.553 110.868 377.021 111.16C376.501 111.438 376.083 111.869 375.767 112.452C375.45 113.034 375.292 113.744 375.292 114.58C375.292 115.428 375.444 116.144 375.748 116.727C376.064 117.309 376.482 117.746 377.002 118.038C377.521 118.316 378.091 118.456 378.712 118.456ZM388.053 111.084C388.357 110.488 388.788 110.026 389.345 109.697C389.915 109.367 390.605 109.203 391.416 109.203V110.989H390.96C389.022 110.989 388.053 112.04 388.053 114.143V119.805H386.324V109.393H388.053V111.084ZM405.933 109.203C406.744 109.203 407.466 109.374 408.099 109.716C408.732 110.045 409.233 110.545 409.6 111.217C409.967 111.888 410.151 112.705 410.151 113.668V119.805H408.441V113.915C408.441 112.876 408.181 112.084 407.662 111.54C407.155 110.982 406.465 110.704 405.591 110.704C404.692 110.704 403.976 110.995 403.444 111.578C402.912 112.148 402.646 112.977 402.646 114.067V119.805H400.936V113.915C400.936 112.876 400.676 112.084 400.157 111.54C399.65 110.982 398.96 110.704 398.086 110.704C397.187 110.704 396.471 110.995 395.939 111.578C395.407 112.148 395.141 112.977 395.141 114.067V119.805H393.412V109.393H395.141V110.894C395.483 110.349 395.939 109.931 396.509 109.64C397.092 109.348 397.731 109.203 398.428 109.203C399.302 109.203 400.075 109.399 400.746 109.792C401.417 110.184 401.918 110.761 402.247 111.521C402.538 110.786 403.02 110.216 403.691 109.811C404.362 109.405 405.11 109.203 405.933 109.203ZM412.341 114.561C412.341 113.497 412.557 112.566 412.987 111.768C413.418 110.957 414.007 110.33 414.754 109.887C415.514 109.443 416.357 109.222 417.281 109.222C418.193 109.222 418.985 109.418 419.656 109.811C420.328 110.203 420.828 110.697 421.157 111.293V109.393H422.905V119.805H421.157V117.867C420.815 118.475 420.302 118.981 419.618 119.387C418.947 119.779 418.162 119.976 417.262 119.976C416.338 119.976 415.502 119.748 414.754 119.292C414.007 118.836 413.418 118.196 412.987 117.373C412.557 116.549 412.341 115.612 412.341 114.561ZM421.157 114.58C421.157 113.794 420.999 113.11 420.682 112.528C420.366 111.945 419.935 111.502 419.39 111.198C418.858 110.881 418.269 110.723 417.623 110.723C416.977 110.723 416.388 110.875 415.856 111.179C415.324 111.483 414.9 111.926 414.583 112.509C414.267 113.091 414.108 113.775 414.108 114.561C414.108 115.359 414.267 116.055 414.583 116.651C414.9 117.233 415.324 117.683 415.856 118C416.388 118.304 416.977 118.456 417.623 118.456C418.269 118.456 418.858 118.304 419.39 118C419.935 117.683 420.366 117.233 420.682 116.651C420.999 116.055 421.157 115.365 421.157 114.58ZM430.9 109.203C432.167 109.203 433.193 109.589 433.978 110.362C434.763 111.122 435.156 112.224 435.156 113.668V119.805H433.446V113.915C433.446 112.876 433.186 112.084 432.667 111.54C432.148 110.982 431.438 110.704 430.539 110.704C429.627 110.704 428.899 110.989 428.354 111.559C427.822 112.129 427.556 112.958 427.556 114.048V119.805H425.827V109.393H427.556V110.875C427.898 110.343 428.36 109.931 428.943 109.64C429.538 109.348 430.191 109.203 430.9 109.203ZM437.334 114.58C437.334 113.503 437.55 112.566 437.98 111.768C438.411 110.957 439.006 110.33 439.766 109.887C440.539 109.443 441.419 109.222 442.407 109.222C443.687 109.222 444.738 109.532 445.561 110.153C446.397 110.773 446.948 111.635 447.214 112.737H445.352C445.175 112.103 444.827 111.603 444.307 111.236C443.801 110.868 443.167 110.685 442.407 110.685C441.419 110.685 440.621 111.027 440.013 111.711C439.405 112.382 439.101 113.338 439.101 114.58C439.101 115.834 439.405 116.803 440.013 117.487C440.621 118.171 441.419 118.513 442.407 118.513C443.167 118.513 443.801 118.335 444.307 117.981C444.814 117.626 445.162 117.119 445.352 116.461H447.214C446.936 117.525 446.378 118.38 445.542 119.026C444.706 119.659 443.661 119.976 442.407 119.976C441.419 119.976 440.539 119.754 439.766 119.311C439.006 118.867 438.411 118.24 437.98 117.43C437.55 116.619 437.334 115.669 437.334 114.58ZM459.021 114.2C459.021 114.529 459.002 114.877 458.964 115.245H450.642C450.706 116.271 451.054 117.075 451.687 117.658C452.333 118.228 453.112 118.513 454.024 118.513C454.772 118.513 455.392 118.342 455.886 118C456.393 117.645 456.748 117.176 456.95 116.594H458.812C458.534 117.594 457.976 118.411 457.14 119.045C456.304 119.665 455.266 119.976 454.024 119.976C453.036 119.976 452.15 119.754 451.364 119.311C450.592 118.867 449.984 118.24 449.54 117.43C449.097 116.606 448.875 115.656 448.875 114.58C448.875 113.503 449.091 112.559 449.521 111.749C449.952 110.938 450.554 110.317 451.326 109.887C452.112 109.443 453.011 109.222 454.024 109.222C455.012 109.222 455.886 109.437 456.646 109.868C457.406 110.298 457.989 110.894 458.394 111.654C458.812 112.401 459.021 113.25 459.021 114.2ZM457.235 113.839C457.235 113.18 457.09 112.616 456.798 112.148C456.507 111.666 456.108 111.305 455.601 111.065C455.107 110.811 454.556 110.685 453.948 110.685C453.074 110.685 452.327 110.963 451.706 111.521C451.098 112.078 450.75 112.851 450.661 113.839H457.235ZM470.568 119.938C469.694 119.938 468.909 119.786 468.212 119.482C467.528 119.165 466.99 118.734 466.597 118.19C466.204 117.632 466.002 116.993 465.989 116.271H467.832C467.895 116.891 468.149 117.417 468.592 117.848C469.048 118.266 469.707 118.475 470.568 118.475C471.391 118.475 472.037 118.272 472.506 117.867C472.987 117.449 473.228 116.917 473.228 116.271C473.228 115.764 473.089 115.352 472.81 115.036C472.531 114.719 472.183 114.478 471.765 114.314C471.347 114.149 470.783 113.972 470.074 113.782C469.2 113.554 468.497 113.326 467.965 113.098C467.446 112.87 466.996 112.515 466.616 112.034C466.249 111.54 466.065 110.881 466.065 110.058C466.065 109.336 466.249 108.696 466.616 108.139C466.983 107.581 467.496 107.151 468.155 106.847C468.826 106.543 469.593 106.391 470.454 106.391C471.695 106.391 472.709 106.701 473.494 107.322C474.292 107.942 474.742 108.766 474.843 109.792H472.943C472.88 109.285 472.614 108.842 472.145 108.462C471.676 108.069 471.056 107.873 470.283 107.873C469.561 107.873 468.972 108.063 468.516 108.443C468.06 108.81 467.832 109.329 467.832 110.001C467.832 110.482 467.965 110.875 468.231 111.179C468.51 111.483 468.845 111.717 469.238 111.882C469.643 112.034 470.207 112.211 470.929 112.414C471.803 112.654 472.506 112.895 473.038 113.136C473.57 113.364 474.026 113.725 474.406 114.219C474.786 114.7 474.976 115.359 474.976 116.195C474.976 116.841 474.805 117.449 474.463 118.019C474.121 118.589 473.614 119.051 472.943 119.406C472.272 119.76 471.48 119.938 470.568 119.938ZM486.754 109.393V119.805H485.025V118.266C484.696 118.798 484.234 119.216 483.638 119.52C483.056 119.811 482.41 119.957 481.7 119.957C480.89 119.957 480.161 119.792 479.515 119.463C478.869 119.121 478.356 118.614 477.976 117.943C477.609 117.271 477.425 116.454 477.425 115.492V109.393H479.135V115.264C479.135 116.29 479.395 117.081 479.914 117.639C480.434 118.183 481.143 118.456 482.042 118.456C482.967 118.456 483.695 118.171 484.227 117.601C484.759 117.031 485.025 116.201 485.025 115.112V109.393H486.754ZM502.195 109.203C503.005 109.203 503.727 109.374 504.361 109.716C504.994 110.045 505.494 110.545 505.862 111.217C506.229 111.888 506.413 112.705 506.413 113.668V119.805H504.703V113.915C504.703 112.876 504.443 112.084 503.924 111.54C503.417 110.982 502.727 110.704 501.853 110.704C500.953 110.704 500.238 110.995 499.706 111.578C499.174 112.148 498.908 112.977 498.908 114.067V119.805H497.198V113.915C497.198 112.876 496.938 112.084 496.419 111.54C495.912 110.982 495.222 110.704 494.348 110.704C493.448 110.704 492.733 110.995 492.201 111.578C491.669 112.148 491.403 112.977 491.403 114.067V119.805H489.674V109.393H491.403V110.894C491.745 110.349 492.201 109.931 492.771 109.64C493.353 109.348 493.993 109.203 494.69 109.203C495.564 109.203 496.336 109.399 497.008 109.792C497.679 110.184 498.179 110.761 498.509 111.521C498.8 110.786 499.281 110.216 499.953 109.811C500.624 109.405 501.371 109.203 502.195 109.203ZM521.77 109.203C522.581 109.203 523.303 109.374 523.936 109.716C524.569 110.045 525.07 110.545 525.437 111.217C525.804 111.888 525.988 112.705 525.988 113.668V119.805H524.278V113.915C524.278 112.876 524.018 112.084 523.499 111.54C522.992 110.982 522.302 110.704 521.428 110.704C520.529 110.704 519.813 110.995 519.281 111.578C518.749 112.148 518.483 112.977 518.483 114.067V119.805H516.773V113.915C516.773 112.876 516.513 112.084 515.994 111.54C515.487 110.982 514.797 110.704 513.923 110.704C513.024 110.704 512.308 110.995 511.776 111.578C511.244 112.148 510.978 112.977 510.978 114.067V119.805H509.249V109.393H510.978V110.894C511.32 110.349 511.776 109.931 512.346 109.64C512.929 109.348 513.568 109.203 514.265 109.203C515.139 109.203 515.912 109.399 516.583 109.792C517.254 110.184 517.755 110.761 518.084 111.521C518.375 110.786 518.857 110.216 519.528 109.811C520.199 109.405 520.947 109.203 521.77 109.203ZM528.178 114.561C528.178 113.497 528.393 112.566 528.824 111.768C529.255 110.957 529.844 110.33 530.591 109.887C531.351 109.443 532.193 109.222 533.118 109.222C534.03 109.222 534.822 109.418 535.493 109.811C536.164 110.203 536.665 110.697 536.994 111.293V109.393H538.742V119.805H536.994V117.867C536.652 118.475 536.139 118.981 535.455 119.387C534.784 119.779 533.998 119.976 533.099 119.976C532.174 119.976 531.338 119.748 530.591 119.292C529.844 118.836 529.255 118.196 528.824 117.373C528.393 116.549 528.178 115.612 528.178 114.561ZM536.994 114.58C536.994 113.794 536.836 113.11 536.519 112.528C536.202 111.945 535.772 111.502 535.227 111.198C534.695 110.881 534.106 110.723 533.46 110.723C532.814 110.723 532.225 110.875 531.693 111.179C531.161 111.483 530.737 111.926 530.42 112.509C530.103 113.091 529.945 113.775 529.945 114.561C529.945 115.359 530.103 116.055 530.42 116.651C530.737 117.233 531.161 117.683 531.693 118C532.225 118.304 532.814 118.456 533.46 118.456C534.106 118.456 534.695 118.304 535.227 118C535.772 117.683 536.202 117.233 536.519 116.651C536.836 116.055 536.994 115.365 536.994 114.58ZM543.393 111.084C543.697 110.488 544.128 110.026 544.685 109.697C545.255 109.367 545.945 109.203 546.756 109.203V110.989H546.3C544.362 110.989 543.393 112.04 543.393 114.143V119.805H541.664V109.393H543.393V111.084ZM557.72 109.393L551.45 124.707H549.664L551.716 119.691L547.517 109.393H549.436L552.704 117.829L555.934 109.393H557.72Z" fill="white"/>
</g>
</g>
</g>
<defs>
<filter id="filter0_i_1_63" x="-187.178" y="-224.807" width="2103.35" height="2069.21" filterUnits="userSpaceOnUse" color-interpolation-filters="sRGB">
<feFlood flood-opacity="0" result="BackgroundImageFix"/>
<feBlend mode="normal" in="SourceGraphic" in2="BackgroundImageFix" result="shape"/>
<feColorMatrix in="SourceAlpha" type="matrix" values="0 0 0 0 0 0 0 0 0 0 0 0 0 0 0 0 0 0 127 0" result="hardAlpha"/>
<feMorphology radius="23.1561" operator="erode" in="SourceAlpha" result="effect1_innerShadow_1_63"/>
<feOffset dx="23.1561" dy="30.8748"/>
<feGaussianBlur stdDeviation="88.7651"/>
<feComposite in2="hardAlpha" operator="arithmetic" k2="-1" k3="1"/>
<feColorMatrix type="matrix" values="0 0 0 0 0.0235294 0 0 0 0 0.0313726 0 0 0 0 0.34902 0 0 0 0.75 0"/>
<feBlend mode="normal" in2="shape" result="effect1_innerShadow_1_63"/>
</filter>
<filter id="filter1_i_1_63" x="-187.179" y="5.42072" width="1634.75" height="1608.75" filterUnits="userSpaceOnUse" color-interpolation-filters="sRGB">
<feFlood flood-opacity="0" result="BackgroundImageFix"/>
<feBlend mode="normal" in="SourceGraphic" in2="BackgroundImageFix" result="shape"/>
<feColorMatrix in="SourceAlpha" type="matrix" values="0 0 0 0 0 0 0 0 0 0 0 0 0 0 0 0 0 0 127 0" result="hardAlpha"/>
<feMorphology radius="23.1561" operator="erode" in="SourceAlpha" result="effect1_innerShadow_1_63"/>
<feOffset dx="23.1561" dy="30.8748"/>
<feGaussianBlur stdDeviation="88.7651"/>
<feComposite in2="hardAlpha" operator="arithmetic" k2="-1" k3="1"/>
<feColorMatrix type="matrix" values="0 0 0 0 0.0235294 0 0 0 0 0.0313726 0 0 0 0 0.34902 0 0 0 0.75 0"/>
<feBlend mode="normal" in2="shape" result="effect1_innerShadow_1_63"/>
</filter>
<clipPath id="clip0_1_63">
<path d="M0 0H1372V135C1372 140.523 1367.52 145 1362 145H10C4.47716 145 0 140.523 0 135V0Z" fill="white"/>
</clipPath>
</defs>
</svg>
